<?xml version="1.0" standalone="no"?>
<!DOCTYPE svg PUBLIC "-//W3C//DTD SVG 20010904//EN"
 "http://www.w3.org/TR/2001/REC-SVG-20010904/DTD/svg10.dtd">
<svg version="1.0" xmlns="http://www.w3.org/2000/svg"
 width="512.000000pt" height="512.000000pt" viewBox="0 0 512.000000 512.000000"
 preserveAspectRatio="xMidYMid meet">
<metadata>
Created by potrace 1.14, written by Peter Selinger 2001-2017
</metadata>
<g transform="translate(0.000000,512.000000) scale(0.100000,-0.100000)"
fill="#000000" stroke="none">
<path d="M319 3260 c-1 -20 -1 -1530 0 -1552 1 -17 21 -18 266 -18 l265 0 0
300 0 300 23 1 c24 1 386 0 403 0 7 -1 10 -98 10 -298 l0 -298 267 -3 267 -2
-2 792 -3 793 -265 0 -265 0 0 -268 0 -267 -45 0 c-49 -1 -370 -1 -382 0 -5 0
-8 120 -8 268 l0 267 -265 1 c-231 0 -265 -2 -266 -16z"/>
<path d="M1989 3260 c-3 -37 -5 -416 -2 -425 2 -6 74 -10 193 -10 126 1 190
-2 191 -9 1 -6 3 -256 4 -556 1 -300 3 -551 4 -557 1 -10 61 -13 266 -13 l265
0 0 568 0 568 178 -1 c97 0 185 1 194 3 15 4 17 22 17 170 1 91 2 166 3 168 2
1 84 -124 182 -279 277 -435 306 -480 329 -512 20 -28 21 -40 21 -357 l0 -328
267 0 267 0 0 325 0 325 163 242 c89 134 227 339 306 456 79 117 146 218 149
225 3 10 -61 12 -305 12 -170 0 -311 -2 -314 -5 -2 -3 -55 -105 -118 -227 -63
-123 -117 -223 -121 -223 -4 0 -19 24 -33 53 -67 133 -208 388 -218 394 -7 5
-434 8 -949 8 -833 0 -938 -1 -939 -15z"/>
</g>
</svg>
